<svg xmlns="http://www.w3.org/2000/svg" viewBox="0 0 1200 630" width="1200" height="630" font-family="system-ui, -apple-system, sans-serif">
  <!-- Background -->
  <rect width="1200" height="630" fill="#faf7f6"/>

  <!-- ====== LEFT PANEL — Voice agent web app ====== -->
  <!-- Browser window frame -->
  <rect x="40" y="50" width="680" height="540" rx="12" fill="white" stroke="#e0e0d8" stroke-width="1.5"/>
  <!-- Browser chrome bar -->
  <rect x="40" y="50" width="680" height="38" rx="12" fill="#e8e8e2"/>
  <rect x="40" y="72" width="680" height="16" fill="#e8e8e2"/>
  <!-- Traffic lights -->
  <circle cx="70" cy="69" r="6" fill="#ff5f57"/>
  <circle cx="90" cy="69" r="6" fill="#febc2e"/>
  <circle cx="110" cy="69" r="6" fill="#28c840"/>
  <!-- URL bar -->
  <rect x="135" y="59" width="420" height="20" rx="10" fill="white" opacity="0.7"/>
  <text x="345" y="73" fill="#888" font-size="10" text-anchor="middle" font-family="monospace">shy-order.onrender.com</text>

  <!-- Dark app interior (rounded bottom corners) -->
  <rect x="41" y="88" width="678" height="502" rx="11" fill="#0e0e0e"/>
  <!-- Cover top rounded corners of dark area -->
  <rect x="41" y="88" width="678" height="22" fill="#0e0e0e"/>

  <!-- Language switcher top-left -->
  <text x="65" y="116" fill="#f0f0f0" font-size="11" font-weight="600" opacity="0.85">IT</text>
  <text x="85" y="116" fill="#f0f0f0" font-size="11" opacity="0.3">·</text>
  <text x="95" y="116" fill="#f0f0f0" font-size="11" opacity="0.38">EN</text>
  <text x="117" y="116" fill="#f0f0f0" font-size="11" opacity="0.3">·</text>
  <text x="127" y="116" fill="#f0f0f0" font-size="11" opacity="0.38">ES</text>

  <!-- Profile icon top-right -->
  <circle cx="694" cy="107" r="14" fill="#1a1a1a"/>
  <circle cx="694" cy="103" r="5" fill="#444"/>
  <path d="M687 113 Q687 118 694 118 Q701 118 701 113" fill="#444"/>

  <!-- "shy order" logo -->
  <text x="380" y="222" fill="#ffffff" font-size="50" font-weight="700" text-anchor="middle" letter-spacing="0.04em">shy order</text>

  <!-- Tagline -->
  <text x="380" y="260" fill="#777" font-size="15" text-anchor="middle" font-style="italic" letter-spacing="0.02em">essere timidi ha il suo fascino</text>

  <!-- Restaurant URL input row -->
  <rect x="78" y="306" width="522" height="44" rx="10" fill="#1a1a1a"/>
  <rect x="78" y="306" width="522" height="44" rx="10" stroke="#2e2e2e" stroke-width="1" fill="none"/>
  <text x="108" y="333" fill="#555" font-size="12">incolla il link del ristorante</text>
  <rect x="557" y="314" width="68" height="28" rx="8" fill="#6b0f1a"/>
  <text x="591" y="333" fill="white" font-size="11" text-anchor="middle" font-weight="600">Cerca</text>

  <!-- Scrape result badge -->
  <text x="380" y="378" fill="#c9964a" font-size="10.5" text-anchor="middle" opacity="0.82">PepeVerde  ·  0373 123456  ·  Piazza Benvenuti 6, Crema</text>

  <!-- ElevenLabs widget orb -->
  <circle cx="380" cy="476" r="58" fill="#6b0f1a" opacity="0.07"/>
  <circle cx="380" cy="476" r="45" fill="#6b0f1a" opacity="0.16"/>
  <circle cx="380" cy="476" r="32" fill="#6b0f1a"/>
  <!-- Mic icon -->
  <rect x="374" y="462" width="12" height="18" rx="6" fill="white" opacity="0.92"/>
  <path d="M368 477 Q368 491 380 491 Q392 491 392 477" stroke="white" stroke-width="1.8" fill="none" opacity="0.92"/>
  <line x1="380" y1="491" x2="380" y2="498" stroke="white" stroke-width="1.8" opacity="0.92"/>
  <line x1="374" y1="498" x2="386" y2="498" stroke="white" stroke-width="1.8" opacity="0.92"/>

  <!-- Widget label -->
  <text x="380" y="528" fill="#f0f0f0" font-size="12" text-anchor="middle" opacity="0.5" letter-spacing="0.3">Parla con Shy Order</text>

  <!-- ====== RIGHT PANEL — Admin dashboard ====== -->
  <rect x="760" y="50" width="400" height="540" rx="12" fill="#1a0a0d"/>

  <!-- Dashboard header -->
  <rect x="760" y="50" width="400" height="56" rx="12" fill="#2a1015"/>
  <rect x="760" y="80" width="400" height="26" fill="#2a1015"/>
  <text x="790" y="84" fill="#faf7f6" font-size="14" font-weight="700">shy order</text>
  <text x="790" y="100" fill="#faf7f6" font-size="10" opacity="0.5">Admin · Dashboard</text>
  <!-- Gold status dot -->
  <circle cx="1128" cy="78" r="5" fill="#c9964a"/>

  <!-- KPI Cards — 3 cards -->
  <!-- Card 1: Sessioni oggi -->
  <rect x="778" y="122" width="108" height="70" rx="8" fill="#2e1015"/>
  <text x="832" y="147" fill="#faf7f6" font-size="9" text-anchor="middle" opacity="0.55">Sessioni oggi</text>
  <text x="832" y="170" fill="#faf7f6" font-size="22" font-weight="700" text-anchor="middle">12</text>
  <text x="832" y="184" fill="#c9964a" font-size="9" text-anchor="middle">↑ 4 vs ieri</text>

  <!-- Card 2: Revenue oggi -->
  <rect x="898" y="122" width="108" height="70" rx="8" fill="#2e1015"/>
  <text x="952" y="147" fill="#faf7f6" font-size="9" text-anchor="middle" opacity="0.55">Revenue oggi</text>
  <text x="952" y="170" fill="#faf7f6" font-size="20" font-weight="700" text-anchor="middle">€3,20</text>
  <text x="952" y="184" fill="#c9964a" font-size="9" text-anchor="middle">↑ 18%</text>

  <!-- Card 3: Durata media -->
  <rect x="1018" y="122" width="108" height="70" rx="8" fill="#2e1015"/>
  <text x="1072" y="147" fill="#faf7f6" font-size="9" text-anchor="middle" opacity="0.55">Durata media</text>
  <text x="1072" y="170" fill="#faf7f6" font-size="22" font-weight="700" text-anchor="middle">1:48</text>
  <text x="1072" y="184" fill="#faf7f6" font-size="9" text-anchor="middle" opacity="0.4">min</text>

  <!-- Chart area -->
  <rect x="778" y="206" width="360" height="132" rx="8" fill="#2e1015"/>
  <text x="798" y="226" fill="#faf7f6" font-size="11" font-weight="600" opacity="0.8">Sessioni per giorno</text>

  <!-- Bar chart (bordeaux) -->
  <rect x="800" y="306" width="22" height="14" rx="2" fill="#6b0f1a" opacity="0.45"/>
  <rect x="832" y="291" width="22" height="29" rx="2" fill="#6b0f1a" opacity="0.58"/>
  <rect x="864" y="276" width="22" height="44" rx="2" fill="#6b0f1a" opacity="0.68"/>
  <rect x="896" y="296" width="22" height="24" rx="2" fill="#6b0f1a" opacity="0.58"/>
  <rect x="928" y="268" width="22" height="52" rx="2" fill="#6b0f1a" opacity="0.82"/>
  <rect x="960" y="280" width="22" height="40" rx="2" fill="#6b0f1a" opacity="0.72"/>
  <rect x="992" y="274" width="22" height="46" rx="2" fill="#6b0f1a" opacity="0.78"/>
  <rect x="1024" y="256" width="22" height="64" rx="2" fill="#c9964a"/>
  <rect x="1056" y="272" width="22" height="48" rx="2" fill="#6b0f1a" opacity="0.82"/>
  <rect x="1088" y="262" width="22" height="58" rx="2" fill="#6b0f1a"/>

  <!-- X axis -->
  <line x1="790" y1="322" x2="1128" y2="322" stroke="#faf7f6" stroke-width="0.5" opacity="0.15"/>

  <!-- Day labels -->
  <text x="811" y="334" fill="#faf7f6" font-size="8" text-anchor="middle" opacity="0.35">L</text>
  <text x="843" y="334" fill="#faf7f6" font-size="8" text-anchor="middle" opacity="0.35">M</text>
  <text x="875" y="334" fill="#faf7f6" font-size="8" text-anchor="middle" opacity="0.35">M</text>
  <text x="907" y="334" fill="#faf7f6" font-size="8" text-anchor="middle" opacity="0.35">G</text>
  <text x="939" y="334" fill="#faf7f6" font-size="8" text-anchor="middle" opacity="0.35">V</text>
  <text x="971" y="334" fill="#faf7f6" font-size="8" text-anchor="middle" opacity="0.35">S</text>
  <text x="1003" y="334" fill="#faf7f6" font-size="8" text-anchor="middle" opacity="0.35">D</text>
  <text x="1035" y="334" fill="#c9964a" font-size="8" text-anchor="middle">L</text>
  <text x="1067" y="334" fill="#faf7f6" font-size="8" text-anchor="middle" opacity="0.35">M</text>
  <text x="1099" y="334" fill="#faf7f6" font-size="8" text-anchor="middle" opacity="0.35">M</text>

  <!-- Sessions table -->
  <rect x="778" y="352" width="360" height="162" rx="8" fill="#2e1015"/>
  <text x="798" y="372" fill="#faf7f6" font-size="11" font-weight="600" opacity="0.8">Sessioni recenti</text>

  <!-- Table header -->
  <rect x="778" y="380" width="360" height="18" fill="#1a0a0d" opacity="0.5"/>
  <text x="798" y="393" fill="#faf7f6" font-size="9" opacity="0.45">UTENTE</text>
  <text x="990" y="393" fill="#faf7f6" font-size="9" opacity="0.45" text-anchor="middle">DURATA</text>
  <text x="1130" y="393" fill="#faf7f6" font-size="9" opacity="0.45" text-anchor="end">IMPORTO</text>

  <!-- Row 1 -->
  <text x="798" y="413" fill="#faf7f6" font-size="10">marco.r@gmail.com</text>
  <text x="990" y="413" fill="#faf7f6" font-size="10" text-anchor="middle">2m 12s</text>
  <rect x="1082" y="403" width="46" height="15" rx="7" fill="#6b0f1a"/>
  <text x="1105" y="414" fill="#faf7f6" font-size="9" text-anchor="middle">€0,50</text>

  <!-- Row 2 -->
  <text x="798" y="433" fill="#faf7f6" font-size="10">sara.b@outlook.com</text>
  <text x="990" y="433" fill="#faf7f6" font-size="10" text-anchor="middle">1m 44s</text>
  <rect x="1082" y="423" width="46" height="15" rx="7" fill="#6b0f1a"/>
  <text x="1105" y="434" fill="#faf7f6" font-size="9" text-anchor="middle">€0,35</text>

  <!-- Row 3 -->
  <text x="798" y="453" fill="#faf7f6" font-size="10">luca.m@icloud.com</text>
  <text x="990" y="453" fill="#faf7f6" font-size="10" text-anchor="middle">3m 05s</text>
  <rect x="1082" y="443" width="46" height="15" rx="7" fill="#c9964a" opacity="0.85"/>
  <text x="1105" y="454" fill="#1a0a0d" font-size="9" text-anchor="middle">€0,65</text>

  <!-- Row 4 -->
  <text x="798" y="473" fill="#faf7f6" font-size="10">chiara.v@gmail.com</text>
  <text x="990" y="473" fill="#faf7f6" font-size="10" text-anchor="middle">0m 58s</text>
  <rect x="1082" y="463" width="46" height="15" rx="7" fill="#6b0f1a"/>
  <text x="1105" y="474" fill="#faf7f6" font-size="9" text-anchor="middle">€0,20</text>

  <!-- Bottom pipeline strip -->
  <rect x="760" y="528" width="400" height="62" fill="#100508"/>
  <rect x="760" y="556" width="400" height="34" fill="#100508"/>
  <rect x="760" y="570" width="400" height="20" rx="12" fill="#100508"/>

  <!-- Stack badges -->
  <text x="780" y="549" fill="#faf7f6" font-size="9" opacity="0.4">Stack:</text>
  <rect x="814" y="536" width="66" height="18" rx="9" fill="#6b0f1a" opacity="0.7"/>
  <text x="847" y="548" fill="#faf7f6" font-size="9" text-anchor="middle">ElevenLabs</text>
  <text x="886" y="548" fill="#faf7f6" font-size="10" opacity="0.3">→</text>
  <rect x="894" y="536" width="46" height="18" rx="9" fill="#6b0f1a" opacity="0.7"/>
  <text x="917" y="548" fill="#faf7f6" font-size="9" text-anchor="middle">Twilio</text>
  <text x="946" y="548" fill="#faf7f6" font-size="10" opacity="0.3">→</text>
  <rect x="954" y="536" width="44" height="18" rx="9" fill="#6b0f1a" opacity="0.7"/>
  <text x="976" y="548" fill="#faf7f6" font-size="9" text-anchor="middle">Stripe</text>
  <text x="1004" y="548" fill="#faf7f6" font-size="10" opacity="0.3">→</text>
  <rect x="1012" y="536" width="56" height="18" rx="9" fill="#6b0f1a" opacity="0.7"/>
  <text x="1040" y="548" fill="#faf7f6" font-size="9" text-anchor="middle">Supabase</text>

  <!-- Panel divider -->
  <line x1="740" y1="50" x2="740" y2="590" stroke="#d0c4c0" stroke-width="1" stroke-dasharray="4,4"/>

  <!-- Top labels -->
  <text x="380" y="30" fill="#6b0f1a" font-size="12" font-weight="700" text-anchor="middle" letter-spacing="1" opacity="0.6">WEB APP</text>
  <text x="960" y="30" fill="#faf7f6" font-size="12" font-weight="700" text-anchor="middle" letter-spacing="1" opacity="0.6">ADMIN DASHBOARD</text>
</svg>
